<svg width="24" height="24" viewBox="0 0 24 24" fill="none" xmlns="http://www.w3.org/2000/svg">
<path d="M11.4514 13.5171C11.256 13.3542 11.1429 13.1142 11.1429 12.8571V5.14279C11.1429 4.67136 11.5269 4.28564 12 4.28564C12.4731 4.28564 12.8571 4.67136 12.8571 5.14279V12.4542L17.6914 16.4828C18.0549 16.7913 18.1046 17.3314 17.8011 17.6914C17.4986 18.0514 16.9577 18.1028 16.5943 17.8028L11.4514 13.5171Z" fill="black"/>
<path fill-rule="evenodd" clip-rule="evenodd" d="M12 0C5.37257 0 0 5.37429 0 12C0 18.6257 5.37257 24 12 24C18.6274 24 24 18.6257 24 12C24 5.37429 18.6274 0 12 0ZM1.71429 12C1.71429 6.31714 6.31971 1.71429 12 1.71429C17.6803 1.71429 22.2857 6.31714 22.2857 12C22.2857 17.6829 17.6803 22.2857 12 22.2857C6.31971 22.2857 1.71429 17.6829 1.71429 12Z" fill="black"/>
</svg>
