<svg width="16" height="16" viewBox="0 0 16 16" fill="none" xmlns="http://www.w3.org/2000/svg">
<path fill-rule="evenodd" clip-rule="evenodd" d="M0 5.80703C0 9.01368 2.60781 11.6131 5.86757 11.6131C7.17148 11.6131 8.38225 11.1589 9.40674 10.396C9.40674 10.4743 9.49988 10.5471 9.49988 10.6123L14.1567 15.2572C14.4361 15.5594 14.9949 15.5594 15.2743 15.2572C15.5537 14.955 15.5537 14.4644 15.2743 14.1622L10.6175 9.51734C10.5244 9.45205 10.5244 9.40169 10.4312 9.36438C11.1763 8.38131 11.642 7.14733 11.642 5.80703C11.642 2.59945 9.0342 0 5.86757 0C2.60781 0 0 2.59945 0 5.80703ZM1.58348 5.80707C1.58348 3.45478 3.44621 1.54832 5.86774 1.54832C8.19614 1.54832 10.0589 3.45478 10.0589 5.80707C10.0589 8.15842 8.19614 10.0649 5.86774 10.0649C3.44621 10.0649 1.58348 8.15842 1.58348 5.80707Z" fill="white"/>
</svg>
